{
  "accessors": [
    {
      "bufferView": 2,
      "componentType": 5126,
      "count": 65532,
      "max": [
        1.0244771242141724,
        0.0007733404636383057,
        31.425376892089844
      ],
      "min": [
        -1.0244771242141724,
        -0.2686328589916229,
        -3.16349196434021
      ],
      "type": "VEC3"
    },
    {
      "bufferView": 2,
      "byteOffset": 786384,
      "componentType": 5126,
      "count": 65532,
      "max": [
        0.9983658194541931,
        0.9999581575393677,
        1.0
      ],
      "min": [
        -0.9983658194541931,
        -1.0,
        -1.0
      ],
      "type": "VEC3"
    },
    {
      "bufferView": 1,
      "componentType": 5126,
      "count": 65532,
      "max": [
        1.0,
        1.0034271478652954
      ],
      "min": [
        0.0,
        0.0
      ],
      "type": "VEC2"
    },
    {
      "bufferView": 0,
      "componentType": 5125,
      "count": 269316,
      "type": "SCALAR"
    },
    {
      "bufferView": 2,
      "byteOffset": 1572768,
      "componentType": 5126,
      "count": 65532,
      "max": [
        1.0244771242141724,
        -0.006796550005674362,
        28.542972564697266
      ],
      "min": [
        -1.0244771242141724,
        -0.2686328589916229,
        6.574376583099365
      ],
      "type": "VEC3"
    },
    {
      "bufferView": 2,
      "byteOffset": 2359152,
      "componentType": 5126,
      "count": 65532,
      "max": [
        0.9983658194541931,
        0.9999570846557617,
        1.0
      ],
      "min": [
        -0.9983658194541931,
        -1.0,
        -1.0
      ],
      "type": "VEC3"
    },
    {
      "bufferView": 1,
      "byteOffset": 524256,
      "componentType": 5126,
      "count": 65532,
      "max": [
        1.0,
        1.0
      ],
      "min": [
        0.0,
        0.0
      ],
      "type": "VEC2"
    },
    {
      "bufferView": 0,
      "byteOffset": 1077264,
      "componentType": 5125,
      "count": 332433,
      "type": "SCALAR"
    },
    {
      "bufferView": 2,
      "byteOffset": 3145536,
      "componentType": 5126,
      "count": 65532,
      "max": [
        1.0244771242141724,
        -0.006796550005674362,
        29.678897857666016
      ],
      "min": [
        -1.0244771242141724,
        -0.2686328589916229,
        -3.16349196434021
      ],
      "type": "VEC3"
    },
    {
      "bufferView": 2,
      "byteOffset": 3931920,
      "componentType": 5126,
      "count": 65532,
      "max": [
        0.9983645081520081,
        0.999956488609314,
        1.0
      ],
      "min": [
        -0.9983645081520081,
        -1.0,
        -1.0
      ],
      "type": "VEC3"
    },
    {
      "bufferView": 1,
      "byteOffset": 1048512,
      "componentType": 5126,
      "count": 65532,
      "max": [
        1.0,
        1.0
      ],
      "min": [
        0.0,
        0.0
      ],
      "type": "VEC2"
    },
    {
      "bufferView": 0,
      "byteOffset": 2406996,
      "componentType": 5125,
      "count": 324066,
      "type": "SCALAR"
    },
    {
      "bufferView": 2,
      "byteOffset": 4718304,
      "componentType": 5126,
      "count": 65532,
      "max": [
        1.0244771242141724,
        -0.006796550005674362,
        30.639698028564453
      ],
      "min": [
        -1.0244771242141724,
        -0.2686328589916229,
        -3.16349196434021
      ],
      "type": "VEC3"
    },
    {
      "bufferView": 2,
      "byteOffset": 5504688,
      "componentType": 5126,
      "count": 65532,
      "max": [
        0.9983645081520081,
        0.9999568462371826,
        1.0
      ],
      "min": [
        -0.9983645081520081,
        -1.0,
        -1.0
      ],
      "type": "VEC3"
    },
    {
      "bufferView": 1,
      "byteOffset": 1572768,
      "componentType": 5126,
      "count": 65532,
      "max": [
        1.0,
        1.0
      ],
      "min": [
        0.0,
        0.0
      ],
      "type": "VEC2"
    },
    {
      "bufferView": 0,
      "byteOffset": 3703260,
      "componentType": 5125,
      "count": 329952,
      "type": "SCALAR"
    },
    {
      "bufferView": 2,
      "byteOffset": 6291072,
      "componentType": 5126,
      "count": 65532,
      "max": [
        1.0244771242141724,
        -0.006796550005674362,
        19.895753860473633
      ],
      "min": [
        -1.0244771242141724,
        -0.2686328589916229,
        12.276005744934082
      ],
      "type": "VEC3"
    },
    {
      "bufferView": 2,
      "byteOffset": 7077456,
      "componentType": 5126,
      "count": 65532,
      "max": [
        0.9983645081520081,
        0.9999574422836304,
        1.0
      ],
      "min": [
        -0.9983645081520081,
        -1.0,
        -1.0
      ],
      "type": "VEC3"
    },
    {
      "bufferView": 1,
      "byteOffset": 2097024,
      "componentType": 5126,
      "count": 65532,
      "max": [
        1.0,
        1.0
      ],
      "min": [
        0.0,
        0.0
      ],
      "type": "VEC2"
    },
    {
      "bufferView": 0,
      "byteOffset": 5023068,
      "componentType": 5125,
      "count": 334221,
      "type": "SCALAR"
    },
    {
      "bufferView": 2,
      "byteOffset": 7863840,
      "componentType": 5126,
      "count": 63296,
      "max": [
        1.0244771242141724,
        -0.006796550005674362,
        26.621368408203125
      ],
      "min": [
        -1.0244771242141724,
        -0.2686328589916229,
        19.001619338989258
      ],
      "type": "VEC3"
    },
    {
      "bufferView": 2,
      "byteOffset": 8623392,
      "componentType": 5126,
      "count": 63296,
      "max": [
        0.9983645081520081,
        0.9999574422836304,
        1.0
      ],
      "min": [
        -0.9983658194541931,
        -1.0,
        -1.0
      ],
      "type": "VEC3"
    },
    {
      "bufferView": 1,
      "byteOffset": 2621280,
      "componentType": 5126,
      "count": 63296,
      "max": [
        1.0,
        1.0
      ],
      "min": [
        0.0,
        0.0
      ],
      "type": "VEC2"
    },
    {
      "bufferView": 0,
      "byteOffset": 6359952,
      "componentType": 5125,
      "count": 323340,
      "type": "SCALAR"
    },
    {
      "bufferView": 2,
      "byteOffset": 9382944,
      "componentType": 5126,
      "count": 1584,
      "max": [
        0.8197668194770813,
        0.0007733404636383057,
        31.425376892089844
      ],
      "min": [
        -0.8197668194770813,
        -0.006796550005674362,
        -3.16349196434021
      ],
      "type": "VEC3"
    },
    {
      "bufferView": 2,
      "byteOffset": 9401952,
      "componentType": 5126,
      "count": 1584,
      "max": [
        0.877332866191864,
        1.0,
        -0.0
      ],
      "min": [
        -0.877332866191864,
        0.47988247871398926,
        -0.0
      ],
      "type": "VEC3"
    },
    {
      "bufferView": 1,
      "byteOffset": 3127648,
      "componentType": 5126,
      "count": 1584,
      "max": [
        0.875,
        0.7590025663375854
      ],
      "min": [
        0.5979924201965332,
        0.0
      ],
      "type": "VEC2"
    },
    {
      "bufferView": 0,
      "byteOffset": 7653312,
      "componentType": 5125,
      "count": 3888,
      "type": "SCALAR"
    },
    {
      "bufferView": 2,
      "byteOffset": 9420960,
      "componentType": 5126,
      "count": 17356,
      "max": [
        1.237567663192749,
        -0.24685856699943542,
        30.763622283935547
      ],
      "min": [
        -1.237567663192749,
        -0.4471881091594696,
        -3.163203001022339
      ],
      "type": "VEC3"
    },
    {
      "bufferView": 2,
      "byteOffset": 9629232,
      "componentType": 5126,
      "count": 17356,
      "max": [
        0.955677330493927,
        0.9860211610794067,
        0.9918269515037537
      ],
      "min": [
        -1.0,
        -1.0,
        -0.9918269515037537
      ],
      "type": "VEC3"
    },
    {
      "bufferView": 1,
      "byteOffset": 3140320,
      "componentType": 5126,
      "count": 17356,
      "max": [
        0.875076413154602,
        0.9991059303283691
      ],
      "min": [
        0.125,
        0.0
      ],
      "type": "VEC2"
    },
    {
      "bufferView": 0,
      "byteOffset": 7668864,
      "componentType": 5125,
      "count": 50112,
      "type": "SCALAR"
    }
  ],
  "asset": {
    "extras": {
      "author": "timblewee (https://sketchfab.com/timblewee)",
      "license": "CC-BY-4.0 (http://creativecommons.org/licenses/by/4.0/)",
      "source": "https://sketchfab.com/3d-models/train-track-bbfcc6c769434911ad704ef42eb4d2fb",
      "title": "Train Track"
    },
    "generator": "Sketchfab-13.58.0",
    "version": "2.0"
  },
  "bufferViews": [
    {
      "buffer": 0,
      "byteLength": 7869312,
      "name": "floatBufferViews",
      "target": 34963
    },
    {
      "buffer": 0,
      "byteLength": 3279168,
      "byteOffset": 7869312,
      "byteStride": 8,
      "name": "floatBufferViews",
      "target": 34962
    },
    {
      "buffer": 0,
      "byteLength": 9837504,
      "byteOffset": 11148480,
      "byteStride": 12,
      "name": "floatBufferViews",
      "target": 34962
    }
  ],
  "buffers": [
    {
      "byteLength": 20985984,
      "uri": "scene.bin"
    }
  ],
  "materials": [
    {
      "doubleSided": true,
      "name": "Track_Rust",
      "pbrMetallicRoughness": {
        "baseColorFactor": [
          0.06725368186183119,
          0.01429561738705407,
          0.01429561738705407,
          1.0
        ],
        "metallicFactor": 0.884615,
        "roughnessFactor": 0.7179878048780488
      }
    },
    {
      "doubleSided": true,
      "name": "Track_Silver",
      "pbrMetallicRoughness": {
        "baseColorFactor": [
          0.570476,
          0.570476,
          0.570476,
          1.0
        ],
        "metallicFactor": 0.7972560975609756,
        "roughnessFactor": 0.0
      }
    },
    {
      "doubleSided": true,
      "name": "Sleeper",
      "pbrMetallicRoughness": {
        "baseColorFactor": [
          0.07629608231707316,
          0.06918423018292683,
          0.06066572332317073,
          1.0
        ],
        "metallicFactor": 0.0,
        "roughnessFactor": 0.6
      }
    }
  ],
  "meshes": [
    {
      "name": "Object_0",
      "primitives": [
        {
          "attributes": {
            "NORMAL": 1,
            "POSITION": 0,
            "TEXCOORD_0": 2
          },
          "indices": 3,
          "material": 0,
          "mode": 4
        }
      ]
    },
    {
      "name": "Object_1",
      "primitives": [
        {
          "attributes": {
            "NORMAL": 5,
            "POSITION": 4,
            "TEXCOORD_0": 6
          },
          "indices": 7,
          "material": 0,
          "mode": 4
        }
      ]
    },
    {
      "name": "Object_2",
      "primitives": [
        {
          "attributes": {
            "NORMAL": 9,
            "POSITION": 8,
            "TEXCOORD_0": 10
          },
          "indices": 11,
          "material": 0,
          "mode": 4
        }
      ]
    },
    {
      "name": "Object_3",
      "primitives": [
        {
          "attributes": {
            "NORMAL": 13,
            "POSITION": 12,
            "TEXCOORD_0": 14
          },
          "indices": 15,
          "material": 0,
          "mode": 4
        }
      ]
    },
    {
      "name": "Object_4",
      "primitives": [
        {
          "attributes": {
            "NORMAL": 17,
            "POSITION": 16,
            "TEXCOORD_0": 18
          },
          "indices": 19,
          "material": 0,
          "mode": 4
        }
      ]
    },
    {
      "name": "Object_5",
      "primitives": [
        {
          "attributes": {
            "NORMAL": 21,
            "POSITION": 20,
            "TEXCOORD_0": 22
          },
          "indices": 23,
          "material": 0,
          "mode": 4
        }
      ]
    },
    {
      "name": "Object_6",
      "primitives": [
        {
          "attributes": {
            "NORMAL": 25,
            "POSITION": 24,
            "TEXCOORD_0": 26
          },
          "indices": 27,
          "material": 1,
          "mode": 4
        }
      ]
    },
    {
      "name": "Object_7",
      "primitives": [
        {
          "attributes": {
            "NORMAL": 29,
            "POSITION": 28,
            "TEXCOORD_0": 30
          },
          "indices": 31,
          "material": 2,
          "mode": 4
        }
      ]
    }
  ],
  "nodes": [
    {
      "children": [
        1
      ],
      "matrix": [
        1.0,
        0.0,
        0.0,
        0.0,
        0.0,
        2.220446049250313e-16,
        -1.0,
        0.0,
        0.0,
        1.0,
        2.220446049250313e-16,
        0.0,
        0.0,
        0.0,
        0.0,
        1.0
      ],
      "name": "Sketchfab_model"
    },
    {
      "children": [
        2
      ],
      "name": "root"
    },
    {
      "children": [
        3
      ],
      "matrix": [
        1.0,
        0.0,
        0.0,
        0.0,
        0.0,
        2.220446049250313e-16,
        1.0,
        0.0,
        0.0,
        -1.0,
        2.220446049250313e-16,
        0.0,
        0.0,
        0.0,
        0.0,
        1.0
      ],
      "name": "GLTF_SceneRootNode"
    },
    {
      "children": [
        4,
        5,
        6,
        7,
        8,
        9,
        10,
        11
      ],
      "matrix": [
        -0.9999999991232738,
        0.0,
        4.1874245634805654e-05,
        0.0,
        0.0,
        1.0,
        0.0,
        0.0,
        -4.1874245634805654e-05,
        0.0,
        -0.9999999991232738,
        0.0,
        0.002285757102072239,
        0.2322620153427124,
        22.544904708862305,
        1.0
      ],
      "name": "Track_1"
    },
    {
      "mesh": 0,
      "name": "Object_4"
    },
    {
      "mesh": 1,
      "name": "Object_5"
    },
    {
      "mesh": 2,
      "name": "Object_6"
    },
    {
      "mesh": 3,
      "name": "Object_7"
    },
    {
      "mesh": 4,
      "name": "Object_8"
    },
    {
      "mesh": 5,
      "name": "Object_9"
    },
    {
      "mesh": 6,
      "name": "Object_10"
    },
    {
      "mesh": 7,
      "name": "Object_11"
    }
  ],
  "scene": 0,
  "scenes": [
    {
      "name": "Sketchfab_Scene",
      "nodes": [
        0
      ]
    }
  ]
}
